<?xml version="1.0" encoding="utf-8"?>
<!-- Generator: Adobe Illustrator 23.0.1, SVG Export Plug-In . SVG Version: 6.00 Build 0)  -->
<!DOCTYPE svg PUBLIC "-//W3C//DTD SVG 1.1//EN" "http://www.w3.org/Graphics/SVG/1.1/DTD/svg11.dtd" [
	<!ENTITY ns_extend "http://ns.adobe.com/Extensibility/1.0/">
	<!ENTITY ns_ai "http://ns.adobe.com/AdobeIllustrator/10.0/">
	<!ENTITY ns_graphs "http://ns.adobe.com/Graphs/1.0/">
	<!ENTITY ns_vars "http://ns.adobe.com/Variables/1.0/">
	<!ENTITY ns_imrep "http://ns.adobe.com/ImageReplacement/1.0/">
	<!ENTITY ns_sfw "http://ns.adobe.com/SaveForWeb/1.0/">
	<!ENTITY ns_custom "http://ns.adobe.com/GenericCustomNamespace/1.0/">
	<!ENTITY ns_adobe_xpath "http://ns.adobe.com/XPath/1.0/">
]>
<svg version="1.1" id="Layer_1" xmlns:x="&ns_extend;" xmlns:i="&ns_ai;" xmlns:graph="&ns_graphs;"
	 xmlns="http://www.w3.org/2000/svg" xmlns:xlink="http://www.w3.org/1999/xlink" x="0px" y="0px" viewBox="0 0 100 40"
	 style="enable-background:new 0 0 100 40;" xml:space="preserve">
<style type="text/css">
	.st0{fill:#343433;}
</style>
<metadata>
	<sfw  xmlns="&ns_sfw;">
		<slices></slices>
		<sliceSourceBounds  bottomLeftOrigin="true" height="34.025" width="95.807" x="2.899" y="3.291"></sliceSourceBounds>
	</sfw>
</metadata>
<path class="st0" d="M10.125,11.295c-0.168,0.126-0.126,0.336-0.168,0.588c0,0.042-0.042,0.084-0.042,0.126
	c-0.126,0.294,0.042,0.63,0.126,0.84c-0.126,0.294,0.084,0.588,0.084,0.882c0,0.084-0.042,0.084-0.042,0.126l0.084,0.42
	c0,0.042-0.084,0.168,0.042,0.168c-0.042,0.042-0.084,0.042-0.084,0.084c0.042,0.588,0.21,1.008,0.126,1.723
	c0.168,0.378,0.336,0.798,0.252,1.302c0,0.084-0.084,0.168-0.126,0.252c-0.042,0.252,0.084,0.42,0.042,0.63
	c0.042,0.168,0.126,0.21,0.042,0.42c0,0.084,0.126,0.084,0.168,0.126c0.042,0.378,0.042,0.588,0.126,0.882
	c0,0.084-0.126,0.084-0.168,0.21c0.126,0.252,0.126,0.588,0.252,0.924c-0.084,0.21-0.126,0.378,0.042,0.63
	c-0.042,0.672-0.21,1.302-0.126,2.058c-0.042,0.126-0.21,0.126-0.252,0.294c-0.042,0.126-0.084,0.714-0.042,0.798l-0.042,0.63
	c0.126,0.504-0.252,0.841,0,1.219c-0.084,0.42-0.378,0.924-0.252,1.344c0,0.126-0.126,0.126-0.126,0.252
	c0,0.042,0.126,0.168,0.21,0.042c0,0.126-0.168,0.21-0.168,0.462c0.378,0.042,0.882-0.168,1.176-0.336c0-0.084-0.084-0.126,0-0.168
	c0.084,0.084,0.168,0.042,0.294,0.084c0.084,0,0-0.168,0.042-0.168c0.126-0.084,0.084,0.168,0.252,0.084
	c0.294-0.084,0.504-0.252,0.84-0.126c0.084-0.042,0.168-0.126,0.168-0.21c0.336,0.294,0.63-0.084,0.966,0.084
	c0.126-0.042,0.126-0.168,0.21-0.168c0.084,0.042,0,0.168,0.084,0.168l0.252,0.042c0.294,0.084,0.462,0.294,0.756,0.378
	c0.252,0.547,0.966,0.673,1.512,1.009c0.126,0,0.21,0,0.336,0.042c0,0.042,0.042,0.21,0.168,0.21
	c-0.084,0.168-0.126,0.336-0.126,0.588c-0.126,0.168-0.504,0.168-0.714,0.336c-0.252-0.126-0.714-0.084-1.008,0
	c0-0.168-0.21-0.084-0.42-0.084c-0.504,0-0.882-0.294-1.218,0.042c-0.042,0-0.084-0.084-0.126-0.126
	c-0.42-0.042-1.008-0.084-1.428-0.042c-0.168,0.042-0.378,0.084-0.462,0.21c-0.672-0.042-1.176,0.378-1.764,0.546
	C9.705,31.29,9.494,31.29,9.368,31.5c-0.084,0-0.084-0.042-0.126-0.042c-0.084,0.042-0.126,0.127-0.168,0.211
	c-0.042,0-0.168,0.042-0.168-0.042c-0.084,0.168-0.336,0.126-0.294,0.378c-0.21,0.042-0.336,0.21-0.42,0.378
	c-0.084,0-0.084,0.084-0.252,0.042c-0.042,0.21-0.042,0.336,0,0.546c-0.252,0.126-0.63,0.126-0.798,0.378
	c-0.294-0.042-0.546,0.168-0.798,0.252c-0.126,0.042-0.294,0-0.42,0c-0.336,0.126-0.672,0.546-1.008,0.294
	c-0.252,0.126-0.63,0.084-0.756-0.126c-0.336,0.168-0.588,0.126-0.84-0.042c0.084-0.084,0.042-0.252,0.084-0.336
	c0.084-0.084,0.21-0.042,0.42-0.084c0.126-0.042-0.042-0.168,0.042-0.21c0.336,0,0.63-0.21,0.84-0.378
	c-0.126-0.294-0.504-0.336-0.546-0.714c-0.042-0.084-0.168-0.126-0.252-0.21c-0.042-0.421-0.546-0.547-0.42-0.967
	c-0.252-0.168-0.294-0.672-0.378-1.05c-0.042-0.126-0.042-0.126-0.042-0.252c0-0.042-0.084-0.042-0.084-0.126
	c0-0.252,0.042-0.631,0-0.841c0.042-0.378-0.126-0.672,0-0.924c-0.042-0.252-0.084-0.588-0.084-0.84c0-0.168,0.168-1.26,0.21-1.345
	c0.126-0.504-0.168-1.218,0.168-1.722c0-0.084-0.042-0.126-0.084-0.126c0.336-0.714,0.294-2.058,0.672-2.814
	c-0.084-0.378,0.084-0.798,0.126-1.176c0.042-0.294-0.042-0.63,0-0.882c0-0.084,0.042-0.126,0.042-0.168
	c0.084-0.21,0-0.462,0.042-0.672c0-0.126,0.042-0.294,0.084-0.42c0-0.294-0.084-0.672-0.042-1.008c0-0.084,0.042-0.168,0.042-0.294
	c-0.042-0.126-0.042-0.252,0-0.42c0-0.546,0-1.05,0.084-1.554c0-0.084,0.084-0.21,0.126-0.294c0.042-0.168,0-0.336,0-0.504
	c0-0.126,0.084-0.252,0.168-0.42c0.084-0.63-0.042-1.26,0.084-1.974c0-0.252,0.042-0.462,0.084-0.63
	c0.084-0.21,0.042-0.42,0.084-0.63l0.126-0.588c0.042-0.378,0.252-0.756,0.294-1.134C5.251,7.724,5.251,7.43,5.335,7.136
	c0-0.042,0.042-0.084,0.084-0.126c0.084-0.42-0.042-0.882,0.21-1.26C5.546,5.456,5.504,5.078,5.714,4.784
	c0-0.168-0.084-0.294-0.126-0.378c0-0.042,0.084-0.084,0.084-0.126c0-0.084-0.084-0.126-0.084-0.168
	c0.084-0.168,0.336-0.546,0.126-0.714C5.798,3.313,5.84,3.229,5.798,3.062C5.84,3.02,5.882,2.936,6.008,2.936
	c-0.126-0.126,0-0.21,0.042-0.252C6.176,2.81,6.26,2.81,6.47,2.768c0,0.042,0.084,0.042,0.084,0.126
	c0.084,0,0.084-0.084,0.126-0.084C6.974,2.978,7.1,2.978,7.52,2.936c0.042,0.168,0.252,0.462,0.504,0.378
	c0.294,0.21,0.504,0.504,0.672,0.798c0.042,0.294,0,0.462,0.084,0.672v0.042l0.042,0.042c0,0.042,0,0.042-0.042,0.042
	C8.738,5.078,8.864,5.12,8.99,5.12C8.822,5.288,9.074,5.372,8.948,5.624C8.99,5.708,9.074,5.708,9.116,5.75
	c-0.042,0.21,0,0.378,0.126,0.42c0,0.042-0.084,0.042-0.126,0.042c0,0.126,0.168,0.126,0.21,0.168c-0.042,0.168,0,0.336,0.168,0.378
	C9.452,6.8,9.368,6.842,9.326,6.8C9.494,7.136,9.41,7.346,9.579,7.64c0.126,0.126,0.252,0.042,0.378,0.168
	c0,0.21-0.042,0.462,0.084,0.546C9.915,8.438,9.789,8.816,9.999,8.858c-0.042,0.126-0.084,0.294-0.042,0.42
	c0.042,0.168,0.126,0.168,0.126,0.336c0,0.042-0.042,0.084-0.042,0.084c0.126,0.126,0.042,0,0,0.126c0,0.126,0.084,0.21,0.084,0.294
	s-0.084,0.084-0.126,0.126c0,0.126,0.21,0.126,0.168,0.252c-0.126,0-0.126-0.084-0.21-0.042c0,0.294-0.126,0.504,0.042,0.63H9.957
	v0.042C9.999,11.211,10.041,11.295,10.125,11.295z"/>
<path class="st0" d="M25.035,31.711c-0.042,0,0,0.126-0.084,0.168c-0.168-0.168-0.294,0.126-0.504,0.168
	c-0.798,0.168-2.142,0.378-2.898,0.042c-0.546-0.042-0.756-0.378-1.26-0.42c-0.084-0.253-0.42-0.169-0.42-0.421
	c-0.42-0.168-0.798-0.378-1.008-0.714c-0.084,0-0.084-0.042-0.21-0.042c-0.126-0.294-0.546-0.462-0.63-0.672
	s-0.294-0.378-0.378-0.504c-0.252-0.336-0.462-0.883-0.672-1.219c-0.084-0.126-0.168-0.252-0.21-0.42
	c-0.042-0.042-0.126-0.042-0.126-0.084c-0.084-0.084,0-0.084,0.042-0.126c-0.21-0.546-0.546-1.26-0.504-1.765
	c-0.294-0.546-0.168-1.554-0.378-2.184l-0.084-1.806c-0.042-1.134-0.042-2.311,0.168-3.235c0.042-0.21-0.042-0.294,0-0.42
	c-0.042-0.084,0-0.042,0.042-0.042c0-0.21-0.126-0.588,0.126-0.63c0-0.084-0.084-0.126-0.084-0.21l0.126-0.882
	c0.084-0.252,0.294-0.546,0.168-0.756c0.168-0.126,0-0.42,0.21-0.546c-0.084-0.084,0.042-0.252-0.042-0.336
	c0.126-0.21,0.168-0.462,0.252-0.756c0-0.042,0.084-0.084,0.084-0.084c0.042-0.126,0-0.336,0.042-0.462l0.168-0.588
	c0.042-0.042,0.042-0.168,0.168-0.168c-0.042-0.21,0.042-0.378,0.168-0.462c0.168-0.882,0.63-1.513,0.84-2.353
	c0.084,0,0.042-0.126,0.168-0.084c-0.042-0.252,0.084-0.336,0.168-0.588h0.126c0.126-0.168,0.084-0.546,0.294-0.672
	c-0.042-0.252,0.084-0.42,0.294-0.504c0-0.504,0.336-0.63,0.462-1.092c0.126-0.042,0.21-0.126,0.252-0.252
	c0.21-0.042,0.504-0.21,0.546-0.546c0.126,0.126,0.042-0.042,0.084-0.126c0.042,0,0.21-0.084,0.252-0.168
	c0.252-0.294,0.672-0.462,0.798-0.924c0.336,0.084,0.252-0.294,0.462-0.378L22.305,4.7l0.21-0.126
	c0.126,0.084,0.252,0.21,0.504,0.21c-0.042,0.168,0.42,0.21,0.588,0.336c-0.042,0.084,0.042,0.126,0.084,0.168
	c0.084,0,0.084-0.042,0.168-0.042L23.817,5.33l0.042-0.042v0.084c0.084,0.126,0.42,0,0.294,0.252
	c0.168,0.042,0.252-0.084,0.294-0.21c0.252-0.042,0.42-0.168,0.588-0.294c0.42-0.084,0.714-0.126,0.798-0.42
	c0.252,0.042,0.294-0.126,0.504-0.252c0.336,0.084,0.462-0.294,0.672-0.084c0.126,0.042,0.042-0.168,0.126-0.168
	c0.42,0.042,0.672,0.21,1.008,0.336c0.084,0,0.084-0.168,0.168-0.168c0.168,0.21,0.378,0,0.42,0.294
	c0.21-0.126,0.336,0.042,0.42,0.21c0.084,0,0.126-0.126,0.252-0.084c0,0.126,0.042,0.252,0.084,0.378
	c0.126,0.084,0.252,0.126,0.42,0.168c0.084,0.21,0.252,0.252,0.462,0.294c0.084,0.378,0.546,0.42,0.588,0.84
	c0.21,0,0.168,0.252,0.378,0.252c-0.042,0.126,0.084,0.126,0.042,0.294l0.252,0.126c0,0.21,0.126,0.336,0.126,0.504
	c0.294,0.252,0.294,0.798,0.294,1.344l0.252,0.504c0.084,0.126,0.21,0.294,0.252,0.588c0.042,0.168,0.084,0.546,0.084,0.672
	c0,0.126-0.126,0.168-0.126,0.294c-0.042,0.084-0.042,0.252-0.042,0.378l-0.084,0.462c-0.042,0.294-0.084,0.504,0.042,0.84
	c-0.168,0.126,0.042,0.42-0.126,0.588c0,0.126,0.126,0.168,0.168,0.336c-0.294,0.126-0.084,0.966,0.042,1.008
	c-0.21,0.378-0.126,0.966-0.168,1.386c0.042,0.042,0.084,0.084,0.126,0.084c0.168,0.042,0.168-0.126,0.21-0.252
	c0.042,0.084,0.042,0.168,0.042,0.21c0.252-0.042,0.336-0.294,0.462-0.42h0.084l-0.042-0.042c0.168,0,0.168-0.168,0.252-0.252h0.126
	c0.168-0.252,0.63-0.378,0.966-0.294c-0.042,0.168-0.042,0.546-0.21,0.714c0,0.63-0.42,0.882-0.546,1.428
	c-0.252,0.378-0.588,0.756-0.798,1.26c-0.042-0.042-0.168-0.084-0.168-0.126c-0.084,0.084-0.168,0.168-0.21,0.252
	c-0.168-0.084-0.294,0.042-0.378,0.126c0.126,0.252,0,0.504-0.126,0.714c0.084,0.336-0.042,0.588,0.042,0.798
	c0,0.126-0.126,0.084-0.126,0.168c0.084,0.252,0.042,0.924-0.084,1.176c0,0.042-0.126,0.084-0.126,0.168
	c-0.084,0.126,0,0.294,0,0.42c-0.084,0.21-0.21,0.546,0,0.798c0,0.168-0.21,0.168-0.21,0.294c0.084,0.336-0.294,0.672-0.042,0.798
	c-0.084,0.21-0.336,0.336-0.294,0.672c-0.126-0.042-0.126,0.084-0.168,0.126c0,0.126,0,0.21,0.126,0.168
	c-0.21,0.252-0.084,0.672-0.294,0.966c0.168,0.042-0.084,0.168-0.084,0.295c0,0.084,0.168,0.042,0.126,0.168
	c-0.126-0.042-0.084,0.042-0.21,0.042c0,0.126,0.042,0.168,0.042,0.294c-0.126-0.042-0.126,0.084-0.252,0.042
	c0.21,0.336-0.294,0.378-0.084,0.672c-0.042,0.126-0.21,0.126-0.252,0.21c-0.042,0.378-0.168,0.882-0.504,1.177
	c0.126,0.336-0.378,0.378-0.336,0.672c-0.336,0.084-0.588,0.21-0.672,0.546c-0.378,0.084-0.42,0.294-0.378,0.546
	c-0.042-0.126-0.084,0-0.252-0.042c-0.084,0.042-0.084,0.21-0.168,0.336c-0.294-0.126-0.714-0.126-0.924,0.126
	c-0.168-0.042-0.294,0-0.462-0.042l-0.21,0.252c-0.084-0.084-0.252,0-0.378,0.042l-0.042-0.042v0.084
	C25.623,31.416,25.413,31.669,25.035,31.711z M27.724,27.552v-0.21c0.168-0.126,0.252-0.252,0.336-0.42l0.21-0.378
	c0.21-0.252,0.252-0.589,0.378-0.841c0,0,0.042-0.042,0.084-0.042c0-0.378,0.21-0.504,0.168-0.924c0.126,0,0.084-0.168,0.084-0.294
	c0.168-0.168,0.21-0.378,0.378-0.462c0-0.756,0.546-1.218,0.42-2.016c0.168-0.294,0.252-0.798,0.21-1.134
	c0.042-0.084,0.126-0.168,0.126-0.252c0-0.126-0.084-0.168-0.084-0.21c0.168-0.126,0.126-0.714,0.042-0.798
	c0.042,0.126,0,0.21-0.126,0.21c-0.042-0.126,0-0.378,0.126-0.42c-0.21-0.084-0.252,0.126-0.546,0.084
	c0,0.126-0.042,0.168-0.084,0.21c-0.126-0.21-0.294-0.168-0.462-0.042c-0.336-0.126-0.84-0.042-1.176-0.042
	c-0.336-0.294-0.882-0.336-1.134-0.63h-0.168c-0.042-0.126-0.126-0.21-0.168-0.294c-0.378-0.084-0.462-0.378-0.714-0.504
	l-1.05-1.176c-0.126-0.126-0.168-0.336-0.252-0.504c-0.126-0.21-0.378-0.294-0.462-0.462c-0.042-0.126-0.084-0.168-0.084-0.252
	c-0.168-0.042-0.168-0.294-0.336-0.378c0.042,0.294-0.126,0.336-0.042,0.672c0.042,0.042,0.126-0.084,0.168,0.042
	c0,0.294-0.168,0.378-0.21,0.63c0.084,0.42,0.336,0.756,0.042,1.134c0.084,0.42,0.21,0.63,0.084,1.092
	c0,0.084,0.126,0.084,0.126,0.168c-0.042,0.084-0.21,0.084-0.21,0.21c0.042,0.084,0.168,0.042,0.21,0.126
	c-0.252,0.252,0.042,0.798-0.126,0.966c0.084,0.336,0.084,0.672,0.252,0.924c-0.084,0.21,0.126,0.546-0.126,0.672
	c0,0.252-0.084,0.378-0.042,0.672c0.042,0.084,0.126,0.126,0.126,0.21c0.084,0.294-0.084,0.504-0.042,0.714
	c0,0.084,0.084,0.168,0.084,0.252c0,0.042-0.042,0.252-0.042,0.336c0.042,0.084,0.126,0.042,0.126,0.084
	c-0.042,0.126-0.126,0.084-0.126,0.168c0,0.042,0.084,0.084,0.084,0.168c0,0.168-0.084,0.252,0.084,0.336
	c-0.21,0.084,0.042,0.252,0.21,0.294c0.042,0.42,0.168,0.756,0.378,1.051c0,0.042-0.042,0.084-0.042,0.126
	c0.336,0.21,0.378,0.798,0.756,1.092h-0.126c0.21,0.126,0.336,0.462,0.588,0.294c0.336,0.546,1.008,0.462,1.47,0.168
	c0.084-0.126-0.042-0.168,0.042-0.252h0.336C27.555,27.678,27.597,27.594,27.724,27.552z M30.454,15.286
	c0.252-0.294,0.168-0.756,0.336-1.134c-0.042-0.294-0.042-0.588-0.042-0.924c0-0.126,0.042-0.252,0.042-0.294
	c0-0.126-0.084-0.168-0.042-0.252c0-0.21,0.126-0.336,0.126-0.546c0-0.084-0.084-0.21-0.126-0.378c0-0.126,0.042-0.21,0-0.294
	c0-0.084-0.126-0.126-0.126-0.252c0-0.042,0.168-0.042,0.084-0.084c-0.084-0.21-0.21-0.252-0.294-0.378
	c-0.042-0.042,0-0.168-0.084-0.21c-0.168-0.126-0.126-0.336-0.252-0.462l-0.21-0.126c0-0.084,0.042-0.168,0-0.168
	c-0.084-0.21-0.378-0.336-0.504-0.546c-0.294-0.462-0.378-1.176-0.63-1.596c-0.21-0.336-0.378-0.504-0.63-0.798
	c-0.378-0.378-0.966-0.882-1.554-0.882c-0.252-0.294-0.63,0.084-0.84,0.168c0,0.252,0.168,0.336,0.168,0.546
	c-0.126,0.252-0.336,0.504-0.168,0.882c-0.126,0.504,0,1.092-0.084,1.638c0.126,0.168,0.336,0.378,0.294,0.756
	c0.252,0.336,0.504,0.714,0.42,1.386c0.042,0.042,0.084,0.126,0.168,0.168c0,0.756,0.378,1.302,0.504,2.101
	c0.168-0.042,0.126,0.126,0.168,0.168c0.252,1.092,0.84,1.68,1.512,2.268c0.042,0.168,0.252,0.21,0.294,0.42
	c0.168-0.042,0.168,0.168,0.336,0.21c0,0.084,0.084-0.042,0.168,0c0.042,0.084,0.042,0.21,0.168,0.21
	c0.042,0.126,0.168,0,0.21,0.042c0.126,0.21,0.168,0.42,0.42,0.42c0.084-0.168-0.042-0.126,0-0.294c0,0,0.126,0,0.084-0.126
	C30.412,16.546,30.496,15.832,30.454,15.286z"/>
<path class="st0" d="M53.051,36.079c-0.168,0.126-0.21,0.252-0.42,0.336c-0.084,0-0.084-0.084-0.168-0.042
	c-0.084,0.168-0.252,0-0.337,0.168c-0.084,0-0.126-0.042-0.252-0.042l-0.251,0.168c-0.378-0.126-0.714,0.042-1.008,0.042
	c-0.126,0-0.21-0.084-0.336-0.126c-0.168,0-0.336,0-0.546-0.084c-0.084-0.042-0.084-0.042-0.21,0l-0.21-0.126h-0.294
	c-0.294-0.126-0.504-0.294-0.756-0.336c-0.084-0.126-0.21-0.252-0.378-0.294c-0.336-0.42-0.756-0.672-1.008-1.134
	c-0.126,0.084-0.126-0.042-0.21-0.084c-0.588-1.051-0.966-2.059-1.134-3.445c-0.042-0.168-0.084-0.42-0.084-0.588
	c-0.042-0.546,0.126-1.092,0.168-1.638c0-0.421-0.084-0.799-0.084-1.177c0.042-0.714-0.084-1.428,0-2.1
	c0.042-0.294-0.252-0.588-0.252-0.84c0.042-0.126-0.042-0.21-0.042-0.336s0.084-0.294,0.084-0.42c0-0.252-0.126-0.42-0.126-0.672
	c-0.084-0.882-0.168-0.294-0.504-1.008c-0.168,0.084-0.21-0.882-0.42-0.84c-0.336,0.126-0.714-0.252-0.966-0.378
	c-0.462-0.042-0.21-0.336-0.798-0.42c-0.462,0.126-0.798-0.21-1.218-0.042c-0.084-0.126-0.252,0.084-0.294-0.084
	c-0.126,0,0.042,0.21,0.126,0.21c0,0.084-0.168,0.042-0.126,0.126c0,0.42,0.21,0.714,0.042,1.134
	c0.126,0.126,0.084,0.546,0.168,0.84c0,0.042,0.042,0.126,0.084,0.21c0.042,0.126,0,0.294,0,0.42
	c0.042,0.126,0.168,0.168,0.21,0.294c0.084,0.126,0,0.336,0.084,0.504c-0.126,0.294,0,0.84-0.294,1.008
	c0.252,0.42,0.336,1.009,0.084,1.303c0.042,0.336,0.168,0.546,0.126,0.84c0,0.21,0,0.546-0.084,0.756
	c-0.042,0.168-0.294,0.504-0.294,0.757c-0.042,0.294,0.126,0.546,0.126,0.798c0.042,0.462-0.126,0.798-0.126,1.26
	c-0.042,0.042-0.168,0.042-0.168,0.126c-0.042,0.084-0.42,0.294-0.546,0.42c-0.084,0.085-0.336,0.337-0.546,0.337
	c-0.168,0.084-0.42,0-0.63-0.042c-0.168-0.042-0.336,0.084-0.546-0.084c-0.21,0.084-0.336,0.294-0.504,0.42
	c-0.378,0.042-0.63,0.252-1.008,0.294c-0.63-0.042-1.008-0.504-1.512-0.714c-0.168-0.211-0.294-0.379-0.42-0.673l-0.21-0.336
	c-0.084-0.252-0.294-0.462-0.42-0.714c-0.042-0.126,0-0.252-0.042-0.378c0-0.084-0.084-0.168-0.126-0.294
	c-0.21-0.841-0.21-1.807-0.21-2.772c0-1.008-0.126-2.059-0.126-3.067c0-0.546,0.126-1.008,0.126-1.428
	c0.042-0.042,0.084-0.042,0.168-0.042c-0.168-0.294-0.042-0.63-0.042-1.008c0.042-0.084,0-0.168,0-0.252
	c-0.042-0.378,0.168-0.672,0.084-1.05c0-0.084,0.084-0.084,0.084-0.168c-0.084-0.336,0-0.756,0-1.176
	c0.042-0.336,0-0.672,0.042-1.008c0-0.084,0.042-0.168,0.084-0.21c0.042-0.672-0.042-1.386,0.294-1.932
	c-0.042-0.126-0.126-0.126-0.084-0.252c0.168-0.462,0.294-0.924,0.378-1.47c0.336-0.42,0.21-1.008,0.294-1.555
	c0.042-0.084,0.126-0.168,0.126-0.252c0.084-0.63,0-1.302,0.126-1.932c0-0.126,0.084-0.252,0.042-0.462
	c0-0.126,0.126-0.168,0.126-0.252c0.042-0.63,0.252-0.966,0.252-1.596c0-0.126,0.126-0.168,0.084-0.252
	c-0.042-0.294,0.21-0.63,0.252-0.966c0.042-0.126-0.084-0.252,0.042-0.336c-0.084-0.126-0.042-0.21-0.126-0.252
	c0.168-0.084,0.126-0.378,0.126-0.63c-0.084-0.126-0.126,0.084-0.168,0c0.126-0.252-0.21-0.336-0.252-0.546
	c0.042-0.294,0.168-0.462,0.336-0.672c0.168,0.126,0.462,0.168,0.714,0.168c0.084,0,0.21-0.084,0.336-0.126h0.168
	c0.084,0,0.126-0.084,0.168-0.084c0.462-0.084,0.882-0.084,1.26,0.126c0.042,0.168,0.168,0.294,0.336,0.42
	c0.042,0,0.126,0.042,0.126,0.042c0.126,0.126,0.168,0.336,0.42,0.378c0.042,0.126-0.042,0.42,0.126,0.252
	c0.084,0.042,0.042,0.168-0.084,0.168l0.462,0.882c0.084,0.168,0.084,0.336,0.084,0.588c0,0.126-0.042,0.168-0.084,0.21
	c0.042,0.084,0.042,0.21,0.084,0.252l-0.084,0.252c0.042,0.168,0.126,0.294,0.084,0.546c0.252-0.126,0.42-0.294,0.588-0.42
	c0.21-0.084,0.336-0.294,0.546-0.42c0.252-0.126,0.588-0.084,0.798-0.336c0.42-0.042,0.798-0.42,1.218-0.462
	c0.252-0.084,0.504,0.084,0.714-0.126c0.126-0.042,0.084,0.084,0.126,0.126c0.21-0.21,0.462-0.084,0.672-0.084
	c0.42-0.042,0.672-0.126,1.05,0c0.21,0.042,0.462,0.168,0.504,0.378c0.294-0.042,0.294,0.21,0.588,0.126
	c0.084,0.126,0.21,0.21,0.21,0.378l0.336,0.126c0.042,0.21,0.336,0.336,0.462,0.546c0.042,0.042,0.042,0.126,0.084,0.21
	c0.126,0.168,0.252,0.21,0.336,0.378l0.126,0.378c0.084,0.336,0.42,0.588,0.504,1.05c0.084,0.378,0.084,0.798,0.168,1.176
	c0.084,0.336,0.252,0.672,0.252,1.176c0,0.252-0.042,0.504-0.042,0.756c0,0.126,0.084,0.252,0.084,0.378
	c0.084,0.504,0,1.008,0.042,1.597c-0.126,0.21-0.126,0.504-0.252,0.756c-0.084,0.168-0.21,0.294-0.294,0.504l-0.21,0.546
	c-0.168,0.336-0.42,0.714-0.504,1.176c-0.126,0.084-0.126,0.252-0.252,0.336c-0.084,0.126-0.294,0.126-0.42,0.252
	c-0.126,0.084-0.546,0.252-0.672,0.378c0,0.126-0.84,0.336-0.924,0.504c0.336,0.252,1.176,1.092,1.344,1.428
	c0.294,0.042,0.378,0.252,0.63,0.294c0.21,0.294,0.21,0.672,0.252,1.008c0.126,0.462,0.588,0.504,0.63,0.966
	c0.042,0.63,0.336,0.756,0.504,1.344c0.126,0.336,0.504,1.05,0.504,1.47c0.042,0.463-0.126,0.967-0.084,1.429
	c-0.042,0.336,0.168,0.798,0.168,1.176c-0.042,0.21-0.126,0.42-0.084,0.673c0.042,0.504-0.168,1.05,0.084,1.512
	c-0.084,0.63-0.168,1.429,0,1.933c0.084,0.378,0.294,0.63,0.504,0.882c0.084,0-0.084-0.042,0.084-0.084
	c0.042,0.42,0.672,0.504,0.882,0.882c0.294,0.043,0.757-0.084,1.009,0.127l0.546-0.295c0.084-0.126-0.084-0.042-0.084-0.168
	c0.168,0,0.252-0.084,0.42-0.084c0-0.252,0.084-0.252,0.084-0.462l0.168-0.042c0.084-0.21,0.126-0.378,0.336-0.546
	c-0.042-0.042,0.042-0.21-0.042-0.168c0.21-0.126,0.294-0.42,0.252-0.63c0.421,0,0.505-0.463,1.051-0.421
	c0.336,0.379,0.126,1.093,0.042,1.723c-0.042,0.126,0,0.294-0.042,0.378c-0.042,0.294-0.294,0.462-0.21,0.673
	c-0.084,0-0.084,0.084-0.126,0.126c0.042,0.21-0.168,0.294-0.168,0.546c-0.084,0.084-0.211,0.126-0.253,0.294
	c-0.21,0.042-0.294,0.126-0.336,0.294c-0.084,0-0.168,0-0.21-0.042c-0.084,0.168-0.336,0.168-0.336,0.42
	c-0.042-0.042-0.21-0.126-0.252-0.042C53.639,35.995,53.261,36.121,53.051,36.079z M42.843,8.522
	c-0.294,0.084-0.252,0.462-0.504,0.546c-0.042,0.168-0.168,0.294-0.168,0.462c-0.21-0.042,0.042,0.084-0.168,0.042
	c-0.294,0.42-1.05,0.714-0.798,1.218c0.21,0-0.504,0.168-0.462,0.336c-0.168,0.336,0.21,0.378,0.042,0.672
	c-0.252,0.042,0.042,0.462-0.126,0.63c0.084,0.378,0.042,0.84,0.084,1.302c0.126,0.21,0.126,0.63,0.21,0.966
	c0,0.084-0.084,0.084-0.084,0.21c0.126,0.462,0.084,0.588,0.042,1.05c-0.042,0.042-0.126,0-0.126,0.084
	c0.084,0.126-0.084,0.252-0.168,0.336c0.378,0.462,0,0.798,0.084,1.386c-0.126,0.126-0.126,0.378,0,0.546
	c0.252,0.084,0.546-0.042,0.588-0.168c0.21,0.126,0.42-0.084,0.63-0.21c0.084,0,0.084,0.042,0.168,0.042
	c0.21-0.042,0.462-0.084,0.756-0.042c0.042-0.126,0.21-0.042,0.336-0.084c0.168-0.126,0.21-0.336,0.378-0.42
	c0.126,0,0.168-0.042,0.252-0.042c0.21-0.168,0.168-0.378,0.252-0.588l0.126-0.084c0.042-0.21,0.084-0.42,0.21-0.63l0.42-0.672
	c-0.042-0.252,0.126-0.378,0.126-0.63c0.084,0,0.084-0.084,0.168-0.084c0.084-0.294,0-0.504,0.252-0.588
	c0.126-0.252,0.21-0.546,0.294-0.756c0.042-0.168-0.084-0.084-0.126-0.126c0.21-0.084,0.21-0.294,0.21-0.504
	c0.252-0.21,0.042-0.672,0.126-1.008c0-0.084,0.042-0.126,0.042-0.168s-0.084-0.042-0.084-0.084c0,0,0.126-0.252,0.042-0.294
	c0.126-0.168-0.084-0.588-0.042-0.924c-0.126-0.168-0.168-0.378-0.126-0.63c0-0.084-0.042-0.042-0.084-0.042
	c0.084-0.252,0.042-0.462,0.042-0.798l-0.168-0.168c0.042,0,0.042-0.042,0.042-0.084c-0.126-0.084-0.084-0.294-0.126-0.462
	c-0.168-0.21-0.252-0.42-0.546-0.462c-0.084,0.126-0.042,0.21-0.168,0.252c0.042-0.168-0.084-0.126-0.084-0.21
	c-0.21,0.126-0.462,0.168-0.714,0.252c0,0.084,0.084,0.168-0.042,0.126c-0.084-0.168-0.168-0.042-0.336-0.042
	c0,0.126,0,0.252-0.126,0.294c-0.084-0.042,0.042-0.084-0.084-0.084C43.095,8.229,42.843,8.396,42.843,8.522z"/>
<path class="st0" d="M63.97,3.523c0.126,0.042,0.252,0.126,0.378,0.21c0.63,0.168,1.093,0.462,1.723,0.546
	c0.252,0.294,0.63,0.378,0.84,0.672c0.084-0.042,0.084,0.042,0.21,0.042c0.042,0.168,0.294,0.756,0.378,0.84
	c0.084,0.042-0.042,0.042,0.042,0.168c0.252-0.084,0.252,0.168,0.421,0.21c0.294,0,0.294,0.462,0.504,0.462
	c0.126,0.378,0.21,0.588,0.462,0.714l0.084,0.21c0.168-0.042,0.294,0.042,0.294,0.252c-0.126,0.21-0.252,0-0.42-0.042
	c-0.336-0.042-0.714-0.084-0.924-0.252c-0.337-0.084-0.631-0.294-0.925-0.378c-0.126-0.042-0.084-0.042-0.21,0
	c0-0.126-0.084-0.084-0.168-0.084c0-0.126-0.126-0.084-0.168-0.084c-0.042,0.084-0.504,0-0.588-0.126
	c-0.084,0-0.042,0.126-0.168,0.126c-0.084-0.042,0-0.21-0.126-0.21c-0.378,0.084-0.715,0.126-0.757-0.084
	c-0.168,0.126-0.588-0.21-0.714,0.042c-0.126-0.126-0.294-0.126-0.504-0.126L63.55,6.674c-0.126-0.084-0.21,0-0.252,0.126
	c-0.042-0.042-0.042-0.126-0.126-0.126c-0.126,0.042-0.252,0.042-0.378,0.042l-0.421,0.168c-0.084,0.084-0.168,0.126-0.252,0.126
	c-0.462,0.294-0.882,0.672-1.218,1.218c-1.093,1.596-1.639,3.528-1.471,5.797h0.084c-0.042,0.294,0.21,0.546,0.084,0.798
	c0,0.126,0.084,0.21,0.168,0.21c0,0.084-0.042,0.084-0.042,0.21l0.379,0.462c0.126,0.084,0-0.126,0.126-0.084
	s0.042,0.21,0.084,0.294c0.126-0.042,0.21,0,0.21-0.042c0.084,0.084,0.168,0.21,0.126,0.336c0.168,0,0.294,0.042,0.378,0.126
	c0.252-0.042,0.336-0.084,0.546,0.042c0.084-0.042,0.042-0.168,0.126-0.21c0.084,0.084,0.21,0.084,0.21,0.21
	c0.252-0.126,0.546-0.042,0.673,0.294c0.252-0.042,0.462-0.084,0.672,0c0.084,0,0.084-0.084,0.126-0.126
	c0.042,0.126,0.126,0.21,0.252,0.126l0.084,0.042c0.21,0,0.378,0,0.504-0.126c0.126,0.252,0.546-0.084,0.714,0.042
	c0.042-0.21,0.379-0.168,0.757-0.084c0.126,0,0.042-0.168,0.126-0.21c0.126,0,0.084,0.126,0.168,0.126
	c0.084-0.126,0.546-0.21,0.588-0.126c0.042,0,0.168,0.042,0.168-0.084c0.084,0,0.168,0.042,0.168-0.084
	c0.126,0.042,0.084,0.042,0.21,0c0.294-0.084,0.588-0.294,0.925-0.378c0.21-0.168,0.588-0.21,0.924-0.252
	c0.168-0.042,0.294-0.252,0.42-0.042c0,0.21-0.126,0.294-0.294,0.252l-0.084,0.21c-0.252,0.126-0.546,0.168-0.672,0.546
	c-0.21,0-0.252,0.21-0.547,0.21c-0.168,0.042-0.168,0.294-0.42,0.21c-0.084,0.126,0.042,0.126-0.042,0.168
	c-0.084,0.084-0.252,0-0.294,0.168c-0.126,0-0.126,0.084-0.21,0.042c-0.21,0.294-0.588,0.378-0.84,0.672
	c-0.63,0.084-1.093,0.378-1.723,0.546c-0.336,0.294-0.756,0.294-1.26,0.42c-0.084,0-0.126,0.126-0.21,0.21
	c-0.463-0.168-0.463,0.168-0.925,0.294c-0.168,0.126-0.462,0.168-0.63,0.42c-0.378,0.042-0.588,0.42-1.134,0.336
	c0.084-0.126-0.084-0.084-0.084-0.168c-0.084,0.126-0.295,0.042-0.379,0.126c-0.042-0.042,0-0.126-0.21-0.084
	c-0.084,0.126-0.042,0.252-0.084,0.462c0.042,0.168-0.126,0.756-0.084,0.966l-0.042,0.042v0.084c0,0.042,0,0.126-0.042,0.126
	c0,0.084,0.084,0.126,0.042,0.21c-0.168,0.378-0.168,1.596-0.294,2.016c0.042,0.126,0.168,0,0.21,0c0.042,0.294-0.21,0.546,0,0.714
	v0.042l-0.042,0.042c0.042,0.084,0.252,0.126,0.126,0.21l0.294,0.546c-0.042,0.125,0,0.167,0,0.293
	c0.126,0.084,0.084-0.042,0.252-0.042c-0.084,0.168,0.169,0.378,0.211,0.547c0.126,0.084,0.168,0.168,0.252,0.336
	c0.126,0.042,0.126,0.126,0.252,0.21c0.042,0.21,0.168,0.42,0.42,0.462c0.126,0.336,0.504,0.462,0.588,0.798
	c0.378,0.084,0.714,0,0.966-0.126c0.337,0.126,0.505-0.21,0.883-0.126c0.252-0.168,0.588-0.21,0.798-0.42
	c0.21,0.084,0.252-0.21,0.504-0.126c0.126,0,0.168-0.126,0.252-0.21h0.126c0.715-0.294,1.597-0.462,2.185-0.924h0.126
	c0.504-0.337,0.967-0.672,1.555-0.967c-0.084-0.168,0.042-0.336,0.168-0.42c0.042,0.084,0.21,0,0.252,0.042
	c0.504-0.21,0.924-0.588,1.555-0.714c0.168,0.42-0.252,0.588-0.379,0.882l-0.252,0.126c-0.168,0.378-0.504,0.63-0.588,1.008
	c-0.21,0.085-0.294,0.337-0.252,0.547c-0.336,0.21-0.546,0.714-0.546,0.966c-0.084,0.126-0.168,0.084-0.168,0.252
	c-0.252-0.084-0.21,0.252-0.462,0.21l-0.126,0.378c-0.211,0.042-0.295,0.21-0.463,0.337c-0.042,0.168,0.126,0,0.126,0.084
	c-0.084,0.336-0.462,0.084-0.546,0.294h-0.042l0.042,0.042c-0.21,0.21-0.294,0.588-0.504,0.714
	c-0.042,0.042,0.042,0.084-0.042,0.168c-0.21-0.084-0.168,0.21-0.126,0.252c-0.252,0.252-0.588,0.42-0.84,0.756
	c-0.378,0-0.462,0.336-0.841,0.421l-0.126,0.168c-0.126,0.042-0.126-0.042-0.294,0.042c-0.084,0.126-0.252,0.252-0.378,0.294
	c-0.252-0.042-0.672-0.084-0.798,0.252c-0.042-0.084-0.126,0.126-0.294,0.084c0,0.084-0.042,0.042-0.042,0.084l-0.042-0.042
	l-0.042,0.084c-0.042-0.042-0.042-0.084-0.042-0.126c-0.337,0.084-0.673,0.126-0.841,0.378c-0.294,0.042-0.63,0.168-0.924,0.252
	c-0.168,0.084-0.252,0.21-0.42,0.21c-0.042,0.042-0.168-0.042-0.252-0.042c-0.21,0.042-0.336,0.084-0.589,0.042
	c-0.63,0-1.302,0-2.016-0.336c-0.168,0-0.294-0.042-0.378,0c-0.295-0.21-0.673-0.378-0.841-0.672
	c-0.42-0.084-0.504-0.378-0.924-0.462c-0.042-0.126-0.084-0.21-0.252-0.168c-0.168-0.379-0.504-0.547-0.63-0.967h-0.126
	c-0.084-0.378-0.337-0.63-0.505-1.008c-0.252-0.714-0.378-1.555-0.672-2.311l-0.168-0.336c-0.126-0.252-0.042-0.588-0.126-0.925
	c-0.042-0.503-0.168-1.05-0.042-1.638c0-0.084,0.042-0.126,0.084-0.21c0.042-0.168,0.042-0.336,0.042-0.504
	c0.084-0.252,0.21-0.462,0.252-0.714l0.336-0.966c0.168-0.462,0.42-1.68,0.63-2.017c0.127-0.252,0.295-0.504,0.505-0.756
	c0.126-0.21,0.462-0.462,0.504-0.672c0.042-0.084,0.042-0.21,0-0.252L55.19,18.1l-0.252-0.126l-0.21-0.42l-0.21-0.294l-0.085-0.084
	v-0.042l-0.168-0.294c-0.042,0-0.042-0.042-0.042-0.042s-0.042-0.042-0.042-0.084l-0.126-0.378c-0.588-1.47-0.21-3.361-0.252-4.117
	v-0.084c0.168,0.126,0.042,0.126,0.252,0.084l0.378-0.21h-0.462c-0.126-0.042,0-0.042,0.21-0.168v-0.126l0.168,0.126l-0.168-0.588
	l-0.378,0.588c0-0.714,0.042-1.428,0.252-2.184c0.042,0.294-0.084,0.126,0.252,0.252l-0.084,0.126c0.21-0.21,0.126-0.21,0.21-0.462
	H54.35c0,0,0-0.042-0.042-0.126l-0.126-0.042l-0.126,0.126c0.042-0.21,0.126-0.336,0.126-0.462l0.042,0.084l0.21-0.126
	c0.127,0.126,0,0.126,0.253,0.042L55.022,8.9h-0.378c-0.168-0.084,0-0.126,0.126-0.21V8.564l0.168,0.042l-0.168-0.504L54.434,8.69
	l0.211-0.084l-0.295,0.21c0,0.084,0.042,0.126,0.042,0.126h-0.168c0.126-0.462,0.337-0.882,0.589-1.344V7.556l0.21-0.336
	l0.294,0.126V7.43c0.084,0.126,0.126,0.168,0.126,0.168c0-0.042,0-0.042,0.21,0l0.252,0.084c0,0.042,0,0.042,0.042,0.042
	c-0.042-0.042-0.126-0.42-0.126-0.42c0-0.168,0.126-0.294,0.21-0.336l-0.252-0.21c-0.126,0.336,0,0.126-0.21,0.336
	c0-0.378,0.126-0.252,0.084-0.588c-0.336,0.336-0.084,0.336-0.378,0.714c-0.21-0.126-0.126,0.084-0.126-0.21
	c0.168-0.294,0.378-0.63,0.63-0.882v0.084c0.126-0.126,0,0.042,0.168-0.21c0.21-0.252,0.084-0.126,0.084-0.168
	c0.126-0.168,0.21-0.294,0.336-0.336l0.042-0.084l0.588-0.504c0.967-0.756,3.655-2.226,4.915-2.1
	c0.883,0.126,1.555,0.294,2.101,0.546L63.97,3.523z M53.804,11.967v-0.126l0.168-0.084L53.804,11.967z M53.804,12.093v-0.084
	C53.804,12.093,53.846,12.093,53.804,12.093z M55.274,10.413c0-0.126,0.126-0.252,0.168-0.294l-0.252-0.21
	c-0.126,0.336,0,0.126-0.252,0.336c0.084-0.42,0.21-0.294,0.084-0.546c-0.252,0.252,0,0.252-0.336,0.672
	c-0.253-0.126-0.126,0.126-0.21-0.21l-0.295,0.21l0.589,0.126l-0.084,0.042c0.378,0.378,0,0,0.378,0.21l0.21,0.126H55.4
	C55.316,10.791,55.274,10.413,55.274,10.413z M54.896,9.405c0,0,0.126-0.21-0.084-0.084C54.645,9.447,54.896,9.447,54.896,9.405z
	 M54.813,10.497h-0.042l0.126-0.126L54.813,10.497z M54.771,10.539h0.252C54.687,10.749,54.938,10.623,54.771,10.539z M54.813,9.152
	l0.21-0.084C54.98,9.026,55.106,8.984,54.813,9.152z M55.694,8.438c-0.378,0.042-0.252-0.084-0.42-0.21l-0.21,0.252l0.378,0.336
	c0.126-0.336-0.042-0.042,0.21-0.126C55.82,8.564,55.82,8.606,55.694,8.438z M55.442,8.942c-0.252,0-0.126,0-0.294,0.378
	c0.168-0.126,0.042,0.084,0.252-0.126C55.568,8.9,55.442,9.026,55.442,8.942z M55.4,7.346h-0.084l0.21-0.126L55.4,7.346z
	 M55.652,9.152c-0.21,0.042-0.126,0-0.336,0.294C55.694,9.194,55.526,9.405,55.652,9.152z M55.526,7.43h0.126
	C55.442,7.598,55.568,7.472,55.526,7.43z M56.156,6.086c-0.126,0-0.042,0-0.252,0.168C56.282,6.086,56.114,6.212,56.156,6.086z"/>
<path class="st0" d="M88.288,17.89c-0.21,0-0.126,0.462-0.168,0.546c-0.378,0.21-0.294,0.882-0.546,1.218
	c0.042,0.042,0.042,0.126,0.042,0.21c-0.042,0.084-0.126,0.126-0.252,0.168l-0.21,1.386c-0.084,0.084-0.168,0.168-0.252,0.21
	c-0.252,0.714-0.462,1.47-0.882,2.058c0,0.126,0.168,0.084,0.126,0.252c-0.084,0-0.21-0.042-0.252,0.042
	c0.042,0.126-0.042,0.336,0.084,0.42c-0.042,0.126-0.168,0.21-0.252,0.294c0.042,0.462-0.169,0.714-0.084,1.218
	c-0.253,0.126-0.085,0.337-0.253,0.463c-0.042,0.084,0,0.126,0.042,0.168c-0.21,0.546-0.168,1.428-0.42,2.142
	c0.168,0.084,0,0.379,0.084,0.589c-0.168,0.168-0.084,0.336-0.126,0.546c-0.042,0.168-0.168,0.42-0.21,0.63l-0.084,0.588
	c-0.042,0.21-0.126,0.252-0.084,0.42c0,0.169,0.294,0.463,0.294,0.799c0,0.084-0.042,0.21-0.042,0.294
	c0.084,0.21,0.42,0.378,0.42,0.588c0,0.126-0.084,0.294-0.168,0.336h-0.084c-0.042,0,0,0.084,0,0.084c-0.084,0-0.294-0.042-0.42,0
	c-0.294,0.042-0.588,0.042-0.84,0.126c-0.21-0.084-0.252-0.126-0.504-0.084c-0.042-0.21-0.252-0.252-0.421-0.336
	c-0.126,0-0.084,0.126-0.126,0.168c-0.126,0-0.084-0.168-0.21-0.21c-0.462,0.21-0.504-0.294-0.546-0.588
	c-0.042-0.042-0.21,0-0.252-0.084c-0.042-0.168,0-0.42-0.252-0.42c0.042-0.294-0.21-0.294-0.21-0.546
	c-0.168-0.169-0.252-0.337-0.294-0.589c-0.084-0.084-0.042,0-0.168,0c0.042-0.294-0.21-0.546-0.378-0.714
	c-0.042,0,0,0.168-0.126,0.126c0.126-0.42-0.253-0.714-0.337-1.134c-0.084,0-0.168,0-0.21-0.042
	c0.084-0.126,0.084-0.252,0.042-0.378c0-0.085-0.084-0.085-0.126-0.169c-0.084-0.504-0.336-0.798-0.378-1.26
	c-0.126-0.126-0.126,0-0.21-0.042c0.084-0.21,0.042-0.42-0.084-0.546c0.042,0,0.042,0,0.084-0.042
	c-0.21-0.715-0.084-1.387-0.294-2.017c-0.168-0.462-0.546-0.84-0.588-1.344c-0.462-0.84-0.42-2.185-0.631-3.276
	c-0.294,0.126-0.294,0.672-0.252,0.966c-0.336,0.084,0,0.504-0.21,0.63c0.084,0.168,0.168,0.336,0.168,0.546
	c0,0.168-0.084,0.336-0.084,0.546c0,0.126,0.126,0.294,0.126,0.462c0,0.126-0.126,0.252-0.168,0.378c-0.042,0.042,0,0.126,0,0.168
	c-0.042,0.168-0.252,0.252-0.252,0.504c-0.042,0.126,0.042,0.126,0.042,0.21c-0.084,0.672,0.168,1.218,0,1.765
	c0,0.126,0.084,0.168,0.084,0.252c-0.042,0.378-0.168,0.714-0.21,1.134c-0.042,0.126-0.126,0.168-0.168,0.252
	c0.168,0.588,0.042,1.303,0,1.891c-0.084,0.126-0.168,0.21-0.21,0.378c-0.21,0.084-0.42,0.168-0.546,0.336
	c-0.504-0.042-1.177,0.168-1.513-0.126c-0.84,0.126-1.638-0.21-2.479,0.126c-0.126-0.084-0.252-0.168-0.378-0.21
	c-0.252-0.504-0.378-1.092-0.588-1.723c-0.126-0.294-0.252-0.462-0.168-0.756c-0.21-0.42-0.126-1.008-0.168-1.512
	c0-0.211-0.126-0.505-0.126-0.757c-0.042-0.294,0.084-0.546-0.126-0.798c0.042-0.084,0.084-0.084,0.084-0.168
	c-0.168-0.63,0-1.428-0.126-1.933c0.126-0.546,0.084-1.26,0.21-1.806c-0.042-0.252,0-0.462,0.126-0.588l-0.126-0.252
	c0.084-0.126,0.126-0.252,0.21-0.336l-0.084-0.294c0.042-0.168,0.126-0.252,0.084-0.42c0.168-0.294,0.084-0.63,0.168-0.966
	c0-0.084,0.126-0.168,0.126-0.252c0.042-0.168,0-0.378,0-0.546c0.042-0.126,0.126-0.21,0.126-0.336s-0.084-0.294-0.042-0.42
	c0.042-0.504,0.042-1.176,0.294-1.638c-0.168-0.168-0.084-0.336,0-0.672c0.084-0.756,0.42-1.932,0.21-3.024
	c0-0.21,0.042-0.378,0.042-0.588c0.042-0.294-0.042-0.588,0-0.84c0.042-0.168,0.168-0.42,0-0.63c0.168,0,0.042-0.126,0.042-0.21
	c0.336-0.21,0.126-0.672,0.168-0.966c0.042-0.294,0.21-0.546,0.21-0.798c0.126-0.084,0.463,0,0.505-0.168
	c0.168,0.084,0.462,0.042,0.546-0.042c0.084,0,0.042,0.126,0.126,0.126c0.378-0.126,0.546,0,0.924,0.042
	c0.42,0.294,0.967,0.252,1.345,0.588c0.378-0.126,1.05-0.336,1.428-0.084c0.252,0.168,0.336,0.462,0.546,0.672
	c0.169-0.084,0.169,0.084,0.253,0.126c0.042,0.084,0.168,0.042,0.21,0.084c0.168,0.126,0.168,0.378,0.504,0.336
	c0.126,0.378,0.168,0.546,0.462,0.714c0,0.084,0.084,0.126,0,0.168c0.42,0.378,0.63,1.05,0.966,1.386
	c-0.084,0.546,0.126,0.924,0.252,1.428h0.169c-0.211,0.084-0.043,0.252,0.042,0.336c-0.042,0.21,0.084,0.294,0.042,0.546
	c0.042,0.126,0.168,0.084,0.084,0.21c0,0.084,0.126,0.084,0.21,0.126c-0.084,0.588,0.168,1.05,0.126,1.512
	c0,0.084-0.042,0.168-0.042,0.21c0,0.168,0.168,0.252,0.21,0.42c0,0.084-0.042,0.168,0,0.252c0.042,0.21,0.21,0.42,0.21,0.63
	c0,0.084,0.084,0.126,0.21,0.126c-0.042,0.42,0.294,0.84,0.084,1.302c0.126,0.252,0.168,0.588,0.21,0.882
	c0.042,0.084,0.126,0.126,0.168,0.168c0.21,0.504,0.756,1.008,0.588,1.554c0.126,0.21,0.378,0.378,0.42,0.672
	c0.042,0.294-0.042,0.63,0,0.924c0.169,0.21-0.042,0.504,0.126,0.672c0,0.042-0.084,0-0.084,0.084
	c0.042,0.126,0.169,0.21,0.211,0.42c0.042,0.336-0.169,0.756,0.126,0.882c-0.21,0.252,0.084,0.378,0.252,0.546
	s0.126-0.21,0.168-0.504c0.042-0.084,0.168-0.042,0.126-0.168c0-0.042-0.042-0.042-0.084-0.042c0-0.084,0.042-0.084,0.084-0.042
	c0.126-0.42,0.336-0.756,0.462-1.176c0-0.126-0.084-0.168-0.168-0.21c0-0.084,0.084-0.084,0.042-0.168
	c0.126-0.042,0.084,0.126,0.168,0.042c0.126-0.042,0.126-0.252,0.126-0.42c0.168-0.252,0.378-0.504,0.378-0.966
	c0.252-0.252,0.21-0.756,0.462-1.05c0-0.126-0.042-0.126-0.042-0.21c0.378-0.504,0.547-1.176,0.799-1.764
	c-0.042-0.126,0.126-0.042,0.126-0.084c0-0.462,0.378-0.504,0.294-1.05h0.168c0.126-0.252,0.336-0.588,0.378-0.882
	c0.084-0.168,0.294-0.378,0.21-0.63c0.294-0.336,0.252-1.008,0.546-1.302c-0.042-0.168,0.042-0.21,0.042-0.378
	c0.168-0.084,0.252-0.294,0.252-0.588c0.21-0.084,0.084-0.588,0.379-0.63c0.042-0.21,0-0.462,0.126-0.546
	c0-0.084-0.126-0.042-0.084-0.168c0.084,0,0.084-0.042,0.252-0.084c0-0.126-0.168-0.21,0-0.294v-0.042
	c0.168,0.126,0.168-0.21,0.21-0.42c0.084-0.21,0.252-0.42,0.21-0.546c0-0.042,0.042-0.042,0.084-0.042c-0.126-0.126,0-0.168,0-0.336
	c0.084,0,0.126,0.042,0.168,0c-0.042-0.126-0.084,0-0.126-0.084c0.042-0.084,0.168-0.084,0.252-0.168c0-0.084-0.168,0-0.126-0.126
	c0-0.126,0.21-0.042,0.294-0.126c0.126-0.294,0.126-0.42,0.084-0.672c0.084,0.042,0.084-0.084,0.168-0.084h0.042V8.984
	c0.042,0,0-0.168,0-0.21c0.42,0.042,0.21-0.336,0.504-0.378c0-0.084-0.042-0.084-0.084-0.084c0.084-0.084,0.084-0.126,0.21-0.126
	c0-0.504,0.126-0.546,0.126-0.882l0.168-0.042l0.126-0.966c0.127,0.042,0.127-0.042,0.211-0.042c0-0.126-0.168-0.042-0.126-0.21
	c0.042,0,0.084,0,0.126-0.042C91.02,5.876,91.146,5.708,91.02,5.54c0.084,0,0.21-0.042,0.21,0.042h-0.084l0.084,0.042
	c0,0.042,0,0.126,0.084,0.126c-0.042-0.126,0.042-0.168,0-0.21V5.498h0.042c0.042-0.336,0-0.378,0.168-0.588
	c0-0.042-0.168-0.084-0.126-0.042c-0.126-0.084,0.084-0.126,0.168-0.126c-0.042-0.21,0.168-0.252,0.084-0.42
	c0.126-0.042,0.168-0.168,0.42-0.168c0-0.042-0.042-0.042-0.042-0.126c0.042,0,0.126,0.042,0.252,0c0-0.084-0.084-0.084-0.126-0.126
	c0.042-0.084,0.168-0.084,0.294-0.126V3.691c0-0.168,0.21,0.042,0.294-0.084c0.042-0.042,0-0.042-0.042-0.126h0.084l-0.042-0.042
	c0.126,0,0.252,0.042,0.294,0.168c0,0.084-0.084,0.042-0.084,0.084c0.084,0.084,0.168,0.168,0.294,0.21
	c-0.084,0.042-0.084,0.168,0.042,0.168l-0.042,0.042h0.084c-0.042,0.21,0,0.378,0.21,0.462v0.042l0.042-0.042
	c0.126,0.168,0.253,0.21,0.463,0.126c0,0.042-0.042,0.042-0.042,0.084c0.168,0.084,0.168,0.42,0.42,0.504
	c0,0.294,0.042,0.798,0.168,1.092c-0.042-0.042-0.084-0.042-0.168,0l0.21,0.126c0,0.126-0.168,0.126-0.084,0.21l-0.042,0.042V6.8
	c-0.042,0.252,0.084,0.504,0.084,0.756c0,0.168-0.084,0.336-0.042,0.504c0,0.042,0.084,0.126,0.084,0.168
	c0,0.126-0.126,0.252-0.126,0.378c0,0.084,0.042,0.168,0.042,0.21c-0.042,0.252-0.21,0.63-0.21,0.924
	c-0.042,0.546,0.21,1.092-0.042,1.638c0.168,0.588-0.252,1.134,0,1.596c-0.168,0.546,0.084,1.134,0,1.638
	c0,0.042-0.084,0.126-0.084,0.168c0,0.63,0.42,1.008,0.252,1.68c0.042,0.042,0.084,0.126,0.168,0.168
	c-0.21,0.462,0.378,1.092,0.126,1.638c0.126,0.336,0.168,0.756,0.294,1.092c-0.084,0.294-0.084,0.546,0.042,0.798
	c-0.042,0.21-0.084,0.378-0.168,0.504c0,0.126,0.084,0.168,0.126,0.252c-0.084,0.294-0.252,0.714-0.084,1.008
	c-0.126,0.168-0.126,0.42-0.252,0.588c0.084,0.042,0.042,0.21,0.126,0.294c-0.126,0.168-0.126,0.378-0.042,0.546
	c-0.084,0.126-0.168,0.294-0.21,0.462c-0.042,0.126,0.084,0.126,0.126,0.21c-0.252,0.252,0,0.756-0.084,1.134
	c0.084,0.252,0.21,0.378,0.126,0.672h-0.126c0.084,0.252,0.084,0.463,0.21,0.715c-0.084,0.462-0.042,0.924-0.042,1.344
	c-0.042,0.126,0.084,0.084,0.084,0.168c0.042,0.21-0.084,0.21,0,0.42c0.042,0.084,0.084-0.042,0.168,0
	c0.042,0.126-0.084,0.126-0.126,0.21c0.21,0.126-0.042,0.505,0.21,0.547c-0.126,0.336,0,0.672,0.126,1.05
	c0,0.084,0.084,0.042,0.126,0.084c-0.042,0.168,0.084,0.21,0.168,0.252c0.168-0.21,0.294-0.42,0.504-0.588
	c0-0.21,0.084-0.336,0.252-0.378c-0.042-0.126,0-0.168,0.042-0.252c0.211-0.168,0.463-0.336,0.505-0.715
	c0.042,0.042,0.084,0.042,0.126,0.042c0.504-0.336,0.882-0.798,1.596-0.924c0,0.042,0.084,0.042,0.126,0.126
	c-0.084,0.126-0.168,0.126-0.084,0.294c-0.252-0.084-0.294,0.126-0.378,0.252c0,0.168,0,0.252,0.042,0.379
	c-0.084,0.42-0.252,0.714-0.21,1.176c-0.084,0.252-0.084,0.294-0.084,0.504c-0.21,0.252-0.462,0.42-0.504,0.84
	c-0.252,0.295-0.546,0.589-0.966,0.715c-0.169,0.42-0.967,0.21-1.177,0.63c-0.126-0.042-0.252-0.168-0.252,0.042
	c-0.126-0.252-0.42,0.084-0.588,0c-0.084,0-0.042,0.042-0.042,0.126c-0.42-0.042-0.925,0.168-1.261,0.378
	c-0.084,0-0.126,0-0.168-0.042c-0.042,0.042,0.042,0.084-0.042,0.084c-0.084,0.084-0.084-0.042-0.126-0.084
	c-0.084,0.126-0.168,0.084-0.21,0.168c-0.21,0-0.546-0.126-0.924-0.21c-0.336-0.042-0.588-0.168-0.883-0.21
	c-0.084-0.126-0.168-0.294-0.42-0.294c-0.252-0.252-0.42-0.546-0.714-0.798c-0.294-0.547-0.714-0.967-0.84-1.681
	c-0.084-0.042-0.126-0.168-0.21-0.21c0-0.21-0.042-0.378-0.084-0.63c-0.042-0.294-0.21-0.631-0.253-0.925
	c-0.042-0.462,0-0.966-0.042-1.344c0-0.21-0.084-0.294-0.084-0.546c0.042-0.084,0.042-0.252,0.042-0.336
	c0-0.085-0.084-0.169,0-0.295c-0.084-0.21,0-0.462,0-0.714c0-0.084-0.042-0.168-0.042-0.21c0.042-0.21,0.126-0.462,0.084-0.756
	c0-0.168-0.126-0.294-0.126-0.462c-0.042-0.672,0.126-1.302,0.168-1.806c0.043-0.714,0.211-1.302,0.127-1.933l0.126-0.21v-0.546
	c0.21-0.336,0.126-0.798,0.294-1.218c0-0.126-0.126-0.084-0.084-0.21c0.084-0.42,0.042-0.672,0.084-1.134l0.084,0.042l-0.042-0.042
	c0.084-0.084,0.168-0.252,0.084-0.336h-0.126c-0.042,0.042,0,0.252-0.042,0.336l-0.084-0.042l0.042,0.042
	c-0.168,0.084-0.168,0.294-0.126,0.462c-0.337,0.084-0.252,0.462-0.252,0.756L88.33,17.89v0.084
	C88.288,17.974,88.288,17.932,88.288,17.89z"/>
</svg>
